{
  "accessors": [
    {
      "bufferView": 2,
      "componentType": 5126,
      "count": 5754,
      "max": [
        0.9921799898147583,
        0.9925000071525574,
        0.09984000027179718
      ],
      "min": [
        -0.9923700094223022,
        -0.9924200177192688,
        -0.5397999882698059
      ],
      "type": "VEC3"
    },
    {
      "bufferView": 2,
      "byteOffset": 69048,
      "componentType": 5126,
      "count": 5754,
      "max": [
        0.9988222718238831,
        0.9992616772651672,
        0.9999999403953552
      ],
      "min": [
        -0.9993197917938232,
        -0.9997360706329346,
        -0.9999999403953552
      ],
      "type": "VEC3"
    },
    {
      "bufferView": 1,
      "componentType": 5126,
      "count": 5754,
      "max": [
        1.9998400211334229,
        0.9701399803161621
      ],
      "min": [
        -0.9998400211334229,
        -0.07163000106811523
      ],
      "type": "VEC2"
    },
    {
      "bufferView": 0,
      "componentType": 5125,
      "count": 32352,
      "type": "SCALAR"
    },
    {
      "bufferView": 2,
      "byteOffset": 138096,
      "componentType": 5126,
      "count": 2660,
      "max": [
        0.9578099846839905,
        0.9759200215339661,
        0.03836999833583832
      ],
      "min": [
        -0.9617199897766113,
        -0.962689995765686,
        -0.47863999009132385
      ],
      "type": "VEC3"
    },
    {
      "bufferView": 2,
      "byteOffset": 170016,
      "componentType": 5126,
      "count": 2660,
      "max": [
        1.0,
        0.9999812245368958,
        0.9188156127929688
      ],
      "min": [
        -1.0,
        -1.0,
        -0.9990149140357971
      ],
      "type": "VEC3"
    },
    {
      "bufferView": 1,
      "byteOffset": 46032,
      "componentType": 5126,
      "count": 2660,
      "max": [
        0.9863399863243103,
        0.8077399730682373
      ],
      "min": [
        0.013659999705851078,
        0.16619999706745148
      ],
      "type": "VEC2"
    },
    {
      "bufferView": 0,
      "byteOffset": 129408,
      "componentType": 5125,
      "count": 14256,
      "type": "SCALAR"
    }
  ],
  "asset": {
    "extras": {
      "author": "Mike Rowley (https://sketchfab.com/scrumpy26)",
      "license": "CC-BY-NC-4.0 (http://creativecommons.org/licenses/by-nc/4.0/)",
      "source": "https://sketchfab.com/3d-models/bracelet-663eca794d524b0e93e7e2eb33b5ed25",
      "title": "Bracelet"
    },
    "generator": "Sketchfab-12.68.0",
    "version": "2.0"
  },
  "bufferViews": [
    {
      "buffer": 0,
      "byteLength": 186432,
      "name": "floatBufferViews",
      "target": 34963
    },
    {
      "buffer": 0,
      "byteLength": 67312,
      "byteOffset": 186432,
      "byteStride": 8,
      "name": "floatBufferViews",
      "target": 34962
    },
    {
      "buffer": 0,
      "byteLength": 201936,
      "byteOffset": 253744,
      "byteStride": 12,
      "name": "floatBufferViews",
      "target": 34962
    }
  ],
  "buffers": [
    {
      "byteLength": 455680,
      "uri": "scene.bin"
    }
  ],
  "images": [
    {
      "uri": "textures/Material_baseColor.png"
    }
  ],
  "materials": [
    {
      "doubleSided": true,
      "name": "Material.001",
      "pbrMetallicRoughness": {
        "baseColorFactor": [
          0.35260612693710275,
          0.1373958190365706,
          0.0047327606564493965,
          1.0
        ],
        "roughnessFactor": 0.26
      }
    },
    {
      "alphaCutoff": 0.55,
      "alphaMode": "MASK",
      "doubleSided": true,
      "name": "Material",
      "pbrMetallicRoughness": {
        "baseColorFactor": [
          0.732532985489547,
          0.236501287690287,
          0.0026867629056148115,
          1.0
        ],
        "baseColorTexture": {
          "index": 0
        },
        "roughnessFactor": 0.09
      }
    }
  ],
  "meshes": [
    {
      "name": "Circle",
      "primitives": [
        {
          "attributes": {
            "NORMAL": 1,
            "POSITION": 0,
            "TEXCOORD_0": 2
          },
          "indices": 3,
          "material": 0,
          "mode": 4
        }
      ]
    },
    {
      "name": "Circle",
      "primitives": [
        {
          "attributes": {
            "NORMAL": 5,
            "POSITION": 4,
            "TEXCOORD_0": 6
          },
          "indices": 7,
          "material": 1,
          "mode": 4
        }
      ]
    }
  ],
  "nodes": [
    {
      "children": [
        1
      ],
      "matrix": [
        1.0,
        0.0,
        0.0,
        0.0,
        0.0,
        2.220446049250313e-16,
        -1.0,
        0.0,
        0.0,
        1.0,
        2.220446049250313e-16,
        0.0,
        0.0,
        0.0,
        0.0,
        1.0
      ],
      "name": "Sketchfab_model"
    },
    {
      "children": [
        2,
        4
      ],
      "name": "Root"
    },
    {
      "children": [
        3
      ],
      "matrix": [
        -0.25253,
        0.1451,
        0.9566500000000001,
        0.0,
        -0.95721,
        -0.18187,
        -0.22510000000000002,
        0.0,
        0.14132,
        -0.9725599999999999,
        0.18482,
        0.0,
        4.076250000000001,
        -6.449560000000001,
        5.903860000000001,
        1.0
      ],
      "name": "Lamp"
    },
    {
      "name": "Lamp"
    },
    {
      "children": [
        5,
        6
      ],
      "name": "Circle"
    },
    {
      "mesh": 0,
      "name": "Circle"
    },
    {
      "mesh": 1,
      "name": "Circle"
    }
  ],
  "samplers": [
    {
      "magFilter": 9729,
      "minFilter": 9729,
      "wrapS": 10497,
      "wrapT": 10497
    }
  ],
  "scene": 0,
  "scenes": [
    {
      "name": "Sketchfab_Scene",
      "nodes": [
        0
      ]
    }
  ],
  "textures": [
    {
      "sampler": 0,
      "source": 0
    }
  ]
}
