{
  "accessors": [
    {
      "bufferView": 2,
      "componentType": 5126,
      "count": 58786,
      "max": [
        6.021141052246094,
        1.3010175228118896,
        6.021274566650391
      ],
      "min": [
        -6.020974636077881,
        -1.29885733127594,
        -6.021714210510254
      ],
      "type": "VEC3"
    },
    {
      "bufferView": 2,
      "byteOffset": 705432,
      "componentType": 5126,
      "count": 58786,
      "max": [
        0.9999207854270935,
        0.9997976422309875,
        0.9999979734420776
      ],
      "min": [
        -0.9999675750732422,
        -0.9998123049736023,
        -0.9999974966049194
      ],
      "type": "VEC3"
    },
    {
      "bufferView": 1,
      "componentType": 5126,
      "count": 58786,
      "max": [
        0.8429059386253357,
        0.7181854248046875
      ],
      "min": [
        0.0,
        0.0
      ],
      "type": "VEC2"
    },
    {
      "bufferView": 0,
      "componentType": 5125,
      "count": 320268,
      "type": "SCALAR"
    }
  ],
  "asset": {
    "extras": {
      "author": "Yacoob (https://sketchfab.com/muammar.yacoob)",
      "license": "CC-BY-4.0 (http://creativecommons.org/licenses/by/4.0/)",
      "source": "https://sketchfab.com/3d-models/chain-bracelet-3f17edcb3c0c4796907021c9b6b7d1cb",
      "title": "Chain Bracelet"
    },
    "generator": "Sketchfab-15.22.0",
    "version": "2.0"
  },
  "bufferViews": [
    {
      "buffer": 0,
      "byteLength": 1281072,
      "name": "floatBufferViews",
      "target": 34963
    },
    {
      "buffer": 0,
      "byteLength": 470288,
      "byteOffset": 1281072,
      "byteStride": 8,
      "name": "floatBufferViews",
      "target": 34962
    },
    {
      "buffer": 0,
      "byteLength": 1410864,
      "byteOffset": 1751360,
      "byteStride": 12,
      "name": "floatBufferViews",
      "target": 34962
    }
  ],
  "buffers": [
    {
      "byteLength": 3162224,
      "uri": "scene.bin"
    }
  ],
  "materials": [
    {
      "doubleSided": true,
      "name": "Gold",
      "pbrMetallicRoughness": {
        "baseColorFactor": [
          0.6204585874482292,
          0.2106091665924361,
          0.049770177665146395,
          1.0
        ],
        "roughnessFactor": 0.14764079147640796
      }
    }
  ],
  "meshes": [
    {
      "name": "Bracelet_LOD0_Gold_0",
      "primitives": [
        {
          "attributes": {
            "NORMAL": 1,
            "POSITION": 0,
            "TEXCOORD_0": 2
          },
          "indices": 3,
          "material": 0,
          "mode": 4
        }
      ]
    }
  ],
  "nodes": [
    {
      "children": [
        1
      ],
      "matrix": [
        1.0,
        0.0,
        0.0,
        0.0,
        0.0,
        2.220446049250313e-16,
        -1.0,
        0.0,
        0.0,
        1.0,
        2.220446049250313e-16,
        0.0,
        0.0,
        0.0,
        0.0,
        1.0
      ],
      "name": "Sketchfab_model"
    },
    {
      "children": [
        2
      ],
      "matrix": [
        1.0,
        0.0,
        0.0,
        0.0,
        0.0,
        0.0,
        1.0,
        0.0,
        0.0,
        -1.0,
        0.0,
        0.0,
        0.0,
        0.0,
        0.0,
        1.0
      ],
      "name": "6513825bc7b6452db8c17f58a33a79d9.fbx"
    },
    {
      "children": [
        3
      ],
      "name": "RootNode"
    },
    {
      "children": [
        4
      ],
      "name": "Bracelet_LOD0"
    },
    {
      "mesh": 0,
      "name": "Bracelet_LOD0_Gold_0"
    }
  ],
  "scene": 0,
  "scenes": [
    {
      "name": "Sketchfab_Scene",
      "nodes": [
        0
      ]
    }
  ]
}
