{
  "accessors": [
    {
      "bufferView": 2,
      "componentType": 5126,
      "count": 354,
      "max": [
        4.200005054473877,
        4.200003623962402,
        12.627496719360352
      ],
      "min": [
        -4.199999809265137,
        -4.200000286102295,
        8.827494621276855
      ],
      "type": "VEC3"
    },
    {
      "bufferView": 2,
      "byteOffset": 4248,
      "componentType": 5126,
      "count": 354,
      "max": [
        1.0,
        1.0,
        1.0
      ],
      "min": [
        -1.0,
        -1.0,
        -1.0
      ],
      "type": "VEC3"
    },
    {
      "bufferView": 1,
      "componentType": 5126,
      "count": 354,
      "max": [
        0.99853515625,
        0.8504889011383057
      ],
      "min": [
        0.0,
        0.0
      ],
      "type": "VEC2"
    },
    {
      "bufferView": 0,
      "componentType": 5125,
      "count": 816,
      "type": "SCALAR"
    },
    {
      "bufferView": 2,
      "byteOffset": 8496,
      "componentType": 5126,
      "count": 32648,
      "max": [
        9.844056129455566,
        2.1108593940734863,
        9.190277099609375
      ],
      "min": [
        -9.844056129455566,
        -2.110856533050537,
        0.8449670672416687
      ],
      "type": "VEC3"
    },
    {
      "bufferView": 2,
      "byteOffset": 400272,
      "componentType": 5126,
      "count": 32648,
      "max": [
        0.9999905824661255,
        0.9988462924957275,
        0.9992656111717224
      ],
      "min": [
        -0.9999905824661255,
        -0.9988462924957275,
        -0.9992656111717224
      ],
      "type": "VEC3"
    },
    {
      "bufferView": 1,
      "byteOffset": 2832,
      "componentType": 5126,
      "count": 32648,
      "max": [
        0.999500036239624,
        0.9891833662986755
      ],
      "min": [
        0.0005000000237487257,
        0.0005000000237487257
      ],
      "type": "VEC2"
    },
    {
      "bufferView": 0,
      "byteOffset": 3264,
      "componentType": 5125,
      "count": 76608,
      "type": "SCALAR"
    },
    {
      "bufferView": 2,
      "byteOffset": 792048,
      "componentType": 5126,
      "count": 65532,
      "max": [
        9.833455085754395,
        4.687417507171631,
        11.497501373291016
      ],
      "min": [
        -9.844376564025879,
        -4.687408924102783,
        -9.48044490814209
      ],
      "type": "VEC3"
    },
    {
      "bufferView": 2,
      "byteOffset": 1578432,
      "componentType": 5126,
      "count": 65532,
      "max": [
        0.9999999403953552,
        1.0,
        1.0
      ],
      "min": [
        -0.9999999403953552,
        -1.0,
        -1.0
      ],
      "type": "VEC3"
    },
    {
      "bufferView": 1,
      "byteOffset": 264016,
      "componentType": 5126,
      "count": 65532,
      "max": [
        1.0,
        1.0
      ],
      "min": [
        0.0,
        0.0
      ],
      "type": "VEC2"
    },
    {
      "bufferView": 0,
      "byteOffset": 309696,
      "componentType": 5125,
      "count": 320463,
      "type": "SCALAR"
    },
    {
      "bufferView": 2,
      "byteOffset": 2364816,
      "componentType": 5126,
      "count": 59078,
      "max": [
        9.84438419342041,
        4.687412261962891,
        11.497503280639648
      ],
      "min": [
        -9.844376564025879,
        -4.687414169311523,
        -9.48044490814209
      ],
      "type": "VEC3"
    },
    {
      "bufferView": 2,
      "byteOffset": 3073752,
      "componentType": 5126,
      "count": 59078,
      "max": [
        1.0,
        1.0,
        1.0
      ],
      "min": [
        -1.0,
        -1.0,
        -1.0
      ],
      "type": "VEC3"
    },
    {
      "bufferView": 1,
      "byteOffset": 788272,
      "componentType": 5126,
      "count": 59078,
      "max": [
        1.0,
        1.0
      ],
      "min": [
        0.0,
        0.0
      ],
      "type": "VEC2"
    },
    {
      "bufferView": 0,
      "byteOffset": 1591548,
      "componentType": 5125,
      "count": 254751,
      "type": "SCALAR"
    },
    {
      "bufferView": 3,
      "componentType": 5126,
      "count": 101,
      "max": [
        3.3333332538604736
      ],
      "min": [
        0.0
      ],
      "type": "SCALAR"
    },
    {
      "bufferView": 4,
      "componentType": 5126,
      "count": 101,
      "max": [
        0.20150740444660187,
        0.9238795042037964,
        0.3826834559440613,
        0.9238795042037964
      ],
      "min": [
        -0.3826834559440613,
        -0.7631743550300598,
        -0.3161172568798065,
        -0.4864821434020996
      ],
      "type": "VEC4"
    },
    {
      "bufferView": 3,
      "byteOffset": 404,
      "componentType": 5126,
      "count": 101,
      "max": [
        3.3333332538604736
      ],
      "min": [
        0.0
      ],
      "type": "SCALAR"
    },
    {
      "bufferView": 4,
      "byteOffset": 1616,
      "componentType": 5126,
      "count": 101,
      "max": [
        0.20150740444660187,
        0.9238795042037964,
        0.3826834559440613,
        0.9238795042037964
      ],
      "min": [
        -0.3826834559440613,
        -0.7631743550300598,
        -0.3161172568798065,
        -0.4864821434020996
      ],
      "type": "VEC4"
    },
    {
      "bufferView": 3,
      "byteOffset": 808,
      "componentType": 5126,
      "count": 101,
      "max": [
        3.3333332538604736
      ],
      "min": [
        0.0
      ],
      "type": "SCALAR"
    },
    {
      "bufferView": 4,
      "byteOffset": 3232,
      "componentType": 5126,
      "count": 101,
      "max": [
        0.20150740444660187,
        0.9238795042037964,
        0.3826834559440613,
        0.9238795042037964
      ],
      "min": [
        -0.3826834559440613,
        -0.7631743550300598,
        -0.3161172568798065,
        -0.4864821434020996
      ],
      "type": "VEC4"
    }
  ],
  "animations": [
    {
      "channels": [
        {
          "sampler": 0,
          "target": {
            "node": 4,
            "path": "rotation"
          }
        },
        {
          "sampler": 1,
          "target": {
            "node": 6,
            "path": "rotation"
          }
        },
        {
          "sampler": 2,
          "target": {
            "node": 8,
            "path": "rotation"
          }
        }
      ],
      "name": "3dsMax publisher",
      "samplers": [
        {
          "input": 16,
          "interpolation": "LINEAR",
          "output": 17
        },
        {
          "input": 18,
          "interpolation": "LINEAR",
          "output": 19
        },
        {
          "input": 20,
          "interpolation": "LINEAR",
          "output": 21
        }
      ]
    }
  ],
  "asset": {
    "extras": {
      "author": "Tom Au (https://sketchfab.com/trietau)",
      "license": "CC-BY-4.0 (http://creativecommons.org/licenses/by/4.0/)",
      "source": "https://sketchfab.com/3d-models/ring-with-big-black-stone-and-diamond-383865158f294589b669f8745cad57d0",
      "title": "Ring with big black stone and diamond"
    },
    "generator": "Sketchfab-16.53.0",
    "version": "2.0"
  },
  "bufferViews": [
    {
      "buffer": 0,
      "byteLength": 2610552,
      "name": "floatBufferViews",
      "target": 34963
    },
    {
      "buffer": 0,
      "byteLength": 1260896,
      "byteOffset": 2610552,
      "byteStride": 8,
      "name": "floatBufferViews",
      "target": 34962
    },
    {
      "buffer": 0,
      "byteLength": 3782688,
      "byteOffset": 3871448,
      "byteStride": 12,
      "name": "floatBufferViews",
      "target": 34962
    },
    {
      "buffer": 0,
      "byteLength": 1212,
      "byteOffset": 7654136,
      "name": "floatBufferViews"
    },
    {
      "buffer": 0,
      "byteLength": 4848,
      "byteOffset": 7655348,
      "byteStride": 16,
      "name": "floatBufferViews"
    }
  ],
  "buffers": [
    {
      "byteLength": 7660196,
      "uri": "scene.bin"
    }
  ],
  "extensionsUsed": [
    "KHR_materials_transmission",
    "KHR_materials_specular",
    "KHR_materials_clearcoat"
  ],
  "images": [
    {
      "uri": "textures/Kim_cuong_baseColor.jpeg"
    },
    {
      "uri": "textures/Kim_cuong_clearcoat.png"
    }
  ],
  "materials": [
    {
      "alphaMode": "BLEND",
      "doubleSided": true,
      "extensions": {
        "KHR_materials_specular": {
          "specularColorFactor": [
            1.0,
            1.0,
            1.0
          ],
          "specularFactor": 0.809
        },
        "KHR_materials_transmission": {
          "transmissionFactor": 0.010000000000000009
        }
      },
      "name": "Vien_KC_Lon",
      "pbrMetallicRoughness": {
        "baseColorFactor": [
          9.698410939613587e-05,
          0.0007698113683318272,
          0.006072930432828698,
          0.99
        ],
        "metallicFactor": 0.736,
        "roughnessFactor": 0.0
      }
    },
    {
      "alphaMode": "BLEND",
      "doubleSided": true,
      "extensions": {
        "KHR_materials_clearcoat": {
          "clearcoatFactor": 1.0,
          "clearcoatRoughnessFactor": 1.0,
          "clearcoatTexture": {
            "index": 1
          }
        },
        "KHR_materials_specular": {
          "specularColorFactor": [
            1.0,
            1.0,
            1.0
          ],
          "specularFactor": 1.0
        },
        "KHR_materials_transmission": {
          "transmissionFactor": 0.9222854774414551
        }
      },
      "name": "Kim_cuong",
      "pbrMetallicRoughness": {
        "baseColorFactor": [
          1.0,
          0.9504074916579607,
          0.9504074916579607,
          0.25
        ],
        "baseColorTexture": {
          "index": 0
        },
        "metallicFactor": 0.0
      }
    },
    {
      "doubleSided": true,
      "extensions": {
        "KHR_materials_specular": {
          "specularColorFactor": [
            1.0,
            1.0,
            1.0
          ],
          "specularFactor": 1.0
        },
        "KHR_materials_transmission": {
          "transmissionFactor": 0.0
        }
      },
      "name": "Nhan",
      "pbrMetallicRoughness": {
        "baseColorFactor": [
          0.6592412686351545,
          0.6592412686351545,
          0.6592412686351545,
          1.0
        ],
        "roughnessFactor": 0.07161926588728651
      }
    }
  ],
  "meshes": [
    {
      "name": "object_2_Vien KC Lon_0",
      "primitives": [
        {
          "attributes": {
            "NORMAL": 1,
            "POSITION": 0,
            "TEXCOORD_0": 2
          },
          "indices": 3,
          "material": 0,
          "mode": 4
        }
      ]
    },
    {
      "name": "Diamond_Round_Kim cuong_0",
      "primitives": [
        {
          "attributes": {
            "NORMAL": 5,
            "POSITION": 4,
            "TEXCOORD_0": 6
          },
          "indices": 7,
          "material": 1,
          "mode": 4
        }
      ]
    },
    {
      "name": "object_4_Nhan_0",
      "primitives": [
        {
          "attributes": {
            "NORMAL": 9,
            "POSITION": 8,
            "TEXCOORD_0": 10
          },
          "indices": 11,
          "material": 2,
          "mode": 4
        }
      ]
    },
    {
      "name": "object_4_Nhan_0",
      "primitives": [
        {
          "attributes": {
            "NORMAL": 13,
            "POSITION": 12,
            "TEXCOORD_0": 14
          },
          "indices": 15,
          "material": 2,
          "mode": 4
        }
      ]
    }
  ],
  "nodes": [
    {
      "children": [
        1
      ],
      "matrix": [
        1.0,
        0.0,
        0.0,
        0.0,
        0.0,
        2.220446049250313e-16,
        -1.0,
        0.0,
        0.0,
        1.0,
        2.220446049250313e-16,
        0.0,
        0.0,
        0.0,
        0.0,
        1.0
      ],
      "name": "Sketchfab_model"
    },
    {
      "children": [
        2
      ],
      "matrix": [
        0.009999999776482582,
        0.0,
        0.0,
        0.0,
        0.0,
        0.0,
        0.009999999776482582,
        0.0,
        0.0,
        -0.009999999776482582,
        0.0,
        0.0,
        0.0,
        0.0,
        0.0,
        1.0
      ],
      "name": "Diamond vray V3.fbx"
    },
    {
      "children": [
        3
      ],
      "name": "Object_2"
    },
    {
      "children": [
        4,
        6,
        8
      ],
      "name": "RootNode"
    },
    {
      "children": [
        5
      ],
      "name": "object_2",
      "rotation": [
        -0.38268351554870605,
        -2.3169097573827457e-07,
        -2.297905581372106e-07,
        0.9238795042037964
      ],
      "translation": [
        -10.302197456359863,
        7.875239849090576,
        9.735662460327148
      ]
    },
    {
      "mesh": 0,
      "name": "object_2_Vien KC Lon_0"
    },
    {
      "children": [
        7
      ],
      "name": "Diamond_Round",
      "rotation": [
        -0.38268351554870605,
        -2.3169097573827457e-07,
        -2.297905581372106e-07,
        0.9238795042037964
      ],
      "translation": [
        -10.302197456359863,
        7.875239849090576,
        9.735662460327148
      ]
    },
    {
      "mesh": 1,
      "name": "Diamond_Round_Kim cuong_0"
    },
    {
      "children": [
        9,
        10
      ],
      "name": "object_4",
      "rotation": [
        -0.38268351554870605,
        -2.3169097573827457e-07,
        -2.297905581372106e-07,
        0.9238795042037964
      ],
      "translation": [
        -10.302197456359863,
        7.875239849090576,
        9.735662460327148
      ]
    },
    {
      "mesh": 2,
      "name": "object_4_Nhan_0"
    },
    {
      "mesh": 3,
      "name": "object_4_Nhan_0"
    }
  ],
  "samplers": [
    {
      "magFilter": 9729,
      "minFilter": 9987,
      "wrapS": 10497,
      "wrapT": 10497
    }
  ],
  "scene": 0,
  "scenes": [
    {
      "name": "Sketchfab_Scene",
      "nodes": [
        0
      ]
    }
  ],
  "textures": [
    {
      "sampler": 0,
      "source": 0
    },
    {
      "sampler": 0,
      "source": 1
    }
  ]
}
